<svg xmlns="http://www.w3.org/2000/svg" width="62.261" height="64"><g data-name="group 5"><path data-name="path 12" d="M20.642 19.3l2.917 2.891a.978.978 0 010 1.385l-5.92 5.9a2.752 2.752 0 01-1.683.693H9.265c-.543 0-.672-.311-.289-.692l5.954-5.9a.974.974 0 000-1.383l-2.938-2.912a.99.99 0 010-1.4L22.26 7.703a1 1 0 011.4 0l2.917 2.891a.975.975 0 010 1.383l-5.961 5.909a1.008 1.008 0 00.026 1.414zm32.573 4.244a.975.975 0 000-1.383L31.149.285a1 1 0 00-1.4 0l-2.916 2.891a.974.974 0 000 1.383L40.361 17.97a2.706 2.706 0 01.7 1.669v14.013a.985.985 0 01-.987.978H19.547a2.754 2.754 0 00-1.684.692l-4.7 4.661c-.383.381-.253.692.29.692h32.695a1.006 1.006 0 001.009-.979v-14.01c0-.538.314-.667.7-.286l1.045 1.035a1 1 0 001.4 0z" fill="#212121"/><g data-name="group 4" fill="#040000"><g data-name="group 3"><path data-name="path 13" d="M4.865 54.335c-.163.214-.2.239-.315.239-.088 0-.088 0-.391-.252a1.681 1.681 0 00-.945-.29 1.072 1.072 0 00-1.185.945c0 .442.29.681 1.273 1.047a4.872 4.872 0 011.689.844 2.211 2.211 0 01.744 1.765 2.712 2.712 0 01-2.937 2.773 3.392 3.392 0 01-2.521-1.109c-.2-.227-.277-.353-.277-.454s.012-.126.2-.315l.416-.4c.177-.164.214-.189.3-.189a.283.283 0 01.227.126c.391.454.391.454.63.592a2.071 2.071 0 00.984.252 1.2 1.2 0 001.285-1.185 1 1 0 00-.454-.844 6.414 6.414 0 00-1.172-.5C.891 56.826.337 56.221.337 55.111a2.465 2.465 0 012.634-2.445 3.847 3.847 0 012.256.756.289.289 0 01.1.214c0 .075-.025.126-.151.29z"/><path data-name="path 14" d="M9.742 56.452a1.946 1.946 0 011.715-.882 2.059 2.059 0 011.588.668 2.117 2.117 0 01.429 1.537v3c.013.366-.063.442-.429.429h-.668c-.366.013-.441-.063-.428-.429v-2.558a1.752 1.752 0 00-.151-.908 1.013 1.013 0 00-.9-.441c-.781 0-1.16.492-1.16 1.538v2.37c.013.366-.063.442-.428.429h-.662c-.365.013-.441-.063-.428-.429v-8.584c-.013-.366.063-.441.428-.429h.669c.365-.012.441.063.428.429z"/><path data-name="path 15" d="M17.833 53.44a.914.914 0 11-.907-.92.914.914 0 01.907.92zm-.151 7.336c.013.366-.062.442-.428.429h-.668c-.366.013-.442-.063-.429-.429v-4.6c-.013-.366.063-.442.429-.429h.668c.366-.013.441.063.428.429z"/><path data-name="path 16" d="M21.917 56.452a2.243 2.243 0 011.815-.882 2.915 2.915 0 01-.025 5.81 2.118 2.118 0 01-1.79-.882v.277c.013.366-.063.442-.429.429h-.668c-.366.013-.441-.063-.429-.429v-8.584c-.012-.366.063-.441.429-.429h.668c.366-.012.442.063.429.429zm-.164 2.016a1.544 1.544 0 001.538 1.537 1.531 1.531 0 10-1.538-1.537z"/><path data-name="path 17" d="M32.73 60.498a2.1 2.1 0 01-1.777.882 2.916 2.916 0 01-.038-5.81 2.211 2.211 0 011.815.882v-.277c-.013-.366.063-.442.442-.429h.655c.378-.013.454.063.441.429v4.6c.013.366-.063.442-.441.429h-.655c-.378.013-.455-.063-.442-.429zm-2.887-2.029a1.525 1.525 0 101.525-1.525 1.533 1.533 0 00-1.524 1.525z"/><path data-name="path 18" d="M38.641 53.44a.914.914 0 11-.907-.92.915.915 0 01.907.92z"/><path data-name="path 19" d="M42.724 58.835c0 .819.378 1.248 1.122 1.248s1.109-.429 1.109-1.248v-2.659c-.012-.366.063-.442.429-.429h.668c.366-.013.441.063.429.429v2.91c0 1.474-.945 2.294-2.634 2.294s-2.647-.819-2.647-2.294v-2.912c-.013-.366.063-.442.429-.429h.668c.366-.013.441.063.429.429z"/><path data-name="path 20" d="M52.567 55.947l.075-.088c.126-.113.126-.113.4-.113H54c.315 0 .429.063.429.264 0 .088-.05.151-.2.3l-1.954 1.828 2.244 2.5c.164.176.189.226.189.315 0 .189-.113.252-.441.252h-1.185c-.151 0-.164-.013-.34-.214l-1.853-2.13-.164.164v1.752c.013.366-.063.442-.428.429h-.668c-.366.013-.442-.063-.429-.429v-8.584c-.013-.366.063-.441.429-.429h.668c.365-.012.441.063.428.429v5.546z"/><path data-name="path 21" d="M58.503 58.835c0 .819.379 1.248 1.122 1.248s1.11-.429 1.11-1.248v-2.659c-.013-.366.063-.442.429-.429h.668c.366-.013.441.063.429.429v2.91c0 1.474-.945 2.294-2.635 2.294s-2.646-.819-2.646-2.294v-2.912c-.013-.366.063-.442.429-.429h.668c.365-.013.441.063.428.429z"/></g><path data-name="path 22" d="M38.491 61.381a3.037 3.037 0 01-1.059 2.392c-.235.188-.468.331-.468.126v-7.724c-.012-.366.063-.442.429-.429h.668c.366-.013.442.063.429.429l.001 5.206z"/></g></g></svg>